<?xml version="1.0" encoding="utf-8"?>
<!-- Generator: Adobe Illustrator 24.2.1, SVG Export Plug-In . SVG Version: 6.00 Build 0)  -->
<svg version="1.1" id="Layer_1" xmlns="http://www.w3.org/2000/svg" xmlns:xlink="http://www.w3.org/1999/xlink" x="0px" y="0px"
	 viewBox="0 0 175 175" style="enable-background:new 0 0 175 175;" xml:space="preserve">
<style type="text/css">
	.st0{fill:#E4EAEE;}
	.st1{fill:#FFFFFF;}
	.st2{fill:#4D4E4E;}
	.st3{fill:#CE3627;}
	.st4{fill:#F9DC9B;}
	.st5{fill:#EAEEF2;}
	.st6{fill:#FAF8F4;}
	.st7{fill:#E4EAEE;stroke:#E9EFF4;stroke-width:0.7519;stroke-miterlimit:10;}
	.st8{fill:#EDF4FB;}
	.st9{fill:#FAF8F4;stroke:#606262;stroke-miterlimit:10;}
	.st10{fill:#2974B5;stroke:#606262;stroke-miterlimit:10;}
	.st11{fill:#FFFFFF;stroke:#4D4E4E;stroke-miterlimit:10;}
	.st12{fill:#2974B5;}
	.st13{fill:#FFFFFF;stroke:#606262;stroke-miterlimit:10;}
	.st14{fill:#22729F;}
	.st15{fill:#606262;}
	.st16{fill-rule:evenodd;clip-rule:evenodd;fill:#606262;}
	.st17{fill-rule:evenodd;clip-rule:evenodd;fill:#FFFFFF;}
	.st18{fill:#004A85;}
	.st19{fill:#468E8D;}
	.st20{fill:#F8F4EC;}
	.st21{fill:#FBF8F3;}
	.st22{fill:none;stroke:#4D4E4E;stroke-miterlimit:10;}
	.st23{fill:#F8F4EC;stroke:#4D4E4E;stroke-width:1.2;stroke-miterlimit:10;}
	.st24{fill:#FBD892;}
	.st25{fill:#F9DC9B;stroke:#4D4E4E;stroke-miterlimit:10;}
	.st26{fill:#FBF8F3;stroke:#4D4E4E;stroke-width:0.7571;stroke-miterlimit:10;}
	.st27{fill:#FBF8F3;stroke:#4D4E4E;stroke-width:0.8065;stroke-miterlimit:10;}
	.st28{fill:#F8F4EC;stroke:#4D4E4E;stroke-width:0.5787;stroke-miterlimit:10;}
	.st29{fill:#F9DC9B;stroke:#4D4E4E;stroke-width:0.5;stroke-miterlimit:10;}
	.st30{fill:#F8F4EC;stroke:#4D4E4E;stroke-width:1.25;stroke-miterlimit:10;}
	.st31{fill:#FFFFFF;stroke:#4D4E4E;stroke-width:1.25;stroke-miterlimit:10;}
	.st32{fill:#F8F4EC;stroke:#4D4E4E;stroke-width:0.9329;stroke-miterlimit:10;}
	.st33{fill:#F8F4EC;stroke:#4D4E4E;stroke-width:1.1086;stroke-miterlimit:10;}
	.st34{fill:#F8F4EC;stroke:#4D4E4E;stroke-width:1.0355;stroke-miterlimit:10;}
	.st35{fill:#F8F4EC;stroke:#4D4E4E;stroke-width:1.1782;stroke-miterlimit:10;}
	.st36{fill:#FFFFFF;stroke:#4D4E4E;stroke-width:1.0172;stroke-miterlimit:10;}
	.st37{fill:#FFFFFF;stroke:#4D4E4E;stroke-width:1.0011;stroke-miterlimit:10;}
	.st38{fill:#FFFFFF;stroke:#4D4E4E;stroke-width:1.1782;stroke-miterlimit:10;}
	.st39{fill:#5F6161;}
	.st40{fill:#2B5484;}
	.st41{fill:#1E5388;}
	.st42{fill:#F8F4EC;stroke:#4D4E4E;stroke-width:0.7457;stroke-miterlimit:10;}
	.st43{fill:#F8F4EC;stroke:#4D4E4E;stroke-width:1.4177;stroke-miterlimit:10;}
	.st44{fill:#F8F4EC;stroke:#4D4E4E;stroke-width:0.8615;stroke-miterlimit:10;}
	.st45{fill:#F8F4EC;stroke:#4D4E4E;stroke-width:1.0237;stroke-miterlimit:10;}
	.st46{fill:#568C8C;}
	.st47{fill:#F4DBA2;}
	.st48{fill:none;stroke:#4D4E4E;stroke-width:0.9581;stroke-miterlimit:10;}
	.st49{fill:none;stroke:#4D4E4E;stroke-width:1.4652;stroke-miterlimit:10;}
	.st50{fill:none;}
	.st51{fill:#606161;}
</style>
<g>
	<g>
		<path class="st5" d="M150.68,41.35C130.2,11.26,92.56,4.27,60.96,11.17C31.09,17.7,10.27,47.3,8.24,70.99
			c-3.83,44.7,28.51,107.14,89.01,93.33C147.87,152.76,192.1,102.19,150.68,41.35z"/>
	</g>
	<g>
		<path class="st1" d="M136.59,95.51c1.03-1.73,0.4-3.97-1.35-4.96c-1.53-0.87-3.53-2.23-4.53-3.88c-1.75-2.89,0.11-4.8,2.29-8.94
			c2.18-4.14,5.75-23.93-5.9-33.99s-27.39-12.6-42.34-12.92s-36.5,2.71-47.17,21.93c-8.93,16.08-11.17,36.3,2.84,52.6
			c10.61,12.35,9.98,8.96,12.15,10.68c0.99,0.79,2.08,14.4,5.78,17.53c8.95,7.57,36.04,11.39,36.52,9.97
			c0.47-1.42-0.82-14.53,4.61-14.31c15.33,0.61,26.44,1.77,27.52,1.32c2.38-0.99,3.63-2.65,4.28-3.85c1.28-2.35-1.83-7.66-0.57-9.08
			s4.88-1.57,4.88-3.3s-1.57-3.46-1.26-4.25s0.71-0.68,2.01-1.58c1.61-1.12,3.2-2.6,0.91-3.86s-3.87-4.31-3.55-5.72
			s1.57-1.26,2.83-3.3C136.56,95.56,136.58,95.54,136.59,95.51z"/>
	</g>
	<g>
		<path class="st21" d="M53.33,112.24c0.12,0.94,0.89,1.67,1.83,1.73c4.64,0.29,12.32-1.07,12.94-1.68
			c0.73-0.72,0.9-20.99,0.9-21.54c0,0,7.66,1.36,7.63-5.26c0,0,9.93,7,17.89,1.37c4.61-3.26,4.27-7.87,4.27-7.87
			s3.47,3.7,10.53,3.68c6.81-0.02,19.62-10.18,13.82-20.16s-13.06-7.73-13.06-7.73s3.26-10.93-7.25-13.91
			c-7.87-2.24-9.81,2.57-9.81,2.57s-6.17-11.07-17.06-8.72c-12.6,2.72-11.63,11.71-11.63,11.71s-9.22-3.39-14.53,4.22
			c-3.35,4.81-0.01,11.79-0.01,11.79s-9.39,1.8-9.23,9.3c0.14,7.02,4.86,10.41,4.86,10.41s-4.2,0.55-4.87,5.72
			c-0.86,6.62,3.41,10.01,7.76,9.43L53.33,112.24z"/>
	</g>
	<g>
		<g>
			<path class="st2" d="M129.85,80.59c1.59-4.8,3.5-9.54,3.92-14.63c0.34-4.18-0.86-8.23-2.47-12.04c-1.56-3.68-3.53-7.35-6.13-10.4
				c-1.73-2.03-3.86-3.73-6.05-5.23c-6.27-4.31-13.57-7.2-20.96-8.92c-9.16-2.13-18.73-2.4-27.98-0.64
				c-9.63,1.83-19.19,5.88-27.03,11.79c-5.64,4.25-10.37,9.69-13.19,16.21c-2.5,5.75-3.5,11.99-3.5,18.23
				c0,5.43,0.38,10.97,2.29,16.1c2.48,6.66,7.05,12.33,11.84,17.48c2.67,2.87,5.55,5.54,8.26,8.37c1.02,1.07,2.06,2.13,3,3.26
				c1.11,1.34,1.71,3.19,1.85,4.92c0.18,2.12-0.14,4.26-0.32,6.37c-0.09,1.08,1.6,1.08,1.69,0c0.34-4.04,0.93-8.24-1.5-11.81
				c-1.41-2.08-3.45-3.89-5.21-5.67c-5.59-5.65-11.4-11.19-15.45-18.11c-2.73-4.68-4.17-9.76-4.56-15.15
				c-0.42-5.81-0.29-11.73,1.14-17.41c1.59-6.32,4.8-12.07,9.32-16.75c6.09-6.31,14.16-10.74,22.37-13.65
				c16.85-5.96,36.19-4.57,52.02,3.78c2.7,1.42,5.32,3.05,7.67,5c2.29,1.9,4.09,4.09,5.65,6.61c2.23,3.61,4.07,7.58,5.07,11.72
				c1.08,4.43,0.3,8.83-1.03,13.13c-0.72,2.35-1.57,4.65-2.35,6.98C127.87,81.18,129.5,81.62,129.85,80.59L129.85,80.59z"/>
		</g>
	</g>
	<g>
		<g>
			<path class="st2" d="M99.09,142.47c-0.1-2.16-0.64-4.46-0.11-6.6c0.5-2.02,1.99-2.86,3.94-3.15c1.86-0.28,3.79-0.2,5.67-0.3
				c2.35-0.12,4.7-0.33,7.04-0.65c2.38-0.33,4.74-0.79,7.05-1.45c1.95-0.56,4.12-1.16,5.83-2.29c1.44-0.96,2.15-2.35,2.31-4.04
				c0.15-1.6-0.37-3.58,0.37-5.07c0.81-1.64,3.76-1.41,3.83-3.59c0.06-1.8-2.13-3.31-3.19-4.51c-0.34,0.44-0.68,0.88-1.02,1.33
				c1.26,0.55,2.63,0,3.76-0.63c1.31-0.73,2.72-1.79,3.45-3.14c0.87-1.59-0.12-3.26-1.12-4.55c-1.24-1.61-3.91-3.97-2.43-6.19
				c-0.24,0.14-0.49,0.28-0.73,0.42c4.13-0.05,6.5-4.93,4.03-8.2c-1.23-1.63-3.13-2.56-4.85-3.58c-1.71-1.01-4.31-3.24-3.13-5.48
				c0.51-0.96-0.95-1.81-1.46-0.85c-1.47,2.78,0.58,5.63,2.84,7.22c2.07,1.46,6.37,2.84,5.98,6.07c-0.17,1.43-1.36,2.82-2.8,3.09
				c-0.71,0.13-1.1,0.03-1.5,0.72c-0.37,0.63-0.52,1.39-0.47,2.12c0.09,1.5,0.87,2.85,1.79,3.99c0.51,0.63,1.07,1.22,1.54,1.87
				c0.39,0.54,1.08,1.43,1,2.14c-0.1,0.96-1.48,1.92-2.19,2.4c-0.58,0.39-2.07,1.46-2.85,1.12c-0.86-0.38-1.69,0.57-1.02,1.33
				c0.62,0.7,1.31,1.34,1.93,2.04c0.23,0.26,0.55,0.57,0.66,0.9c0.17,0.49-0.06,0.59-0.51,0.84c-1.52,0.84-2.83,1.34-3.33,3.16
				c-0.43,1.55-0.12,3.18-0.23,4.76c-0.16,2.22-1.68,3.13-3.6,3.88c-4.36,1.68-9,2.51-13.64,2.91c-2.1,0.18-4.2,0.28-6.31,0.34
				c-1.66,0.05-3.41,0.11-4.97,0.73c-4.52,1.8-3.4,7.07-3.22,10.9C97.44,143.55,99.13,143.56,99.09,142.47L99.09,142.47z"/>
		</g>
	</g>
	<g>
		<path class="st2" d="M56.56,114.43c-0.5,0-0.97-0.01-1.42-0.04c-1.14-0.07-2.06-0.93-2.22-2.05l-4.9-14.59
			c-2.15,0.19-4.21-0.54-5.69-2.01c-1.84-1.84-2.62-4.65-2.2-7.93c0.51-3.98,3.06-5.39,4.4-5.86c-1.34-1.23-4.27-4.57-4.39-10.21
			c-0.14-6.72,7.06-9.08,9.06-9.6c-0.7-1.69-2.72-7.46,0.26-11.73c4.65-6.67,12.29-5.15,14.44-4.55c0.06-2.14,1.08-9.2,11.97-11.55
			c9.55-2.07,15.61,5.99,17.14,8.32c0.91-1.31,3.62-3.96,9.93-2.17c3.13,0.89,5.39,2.56,6.71,4.96c1.87,3.4,1.32,7.28,1,8.81
			c0.79-0.12,2.18-0.2,3.9,0.26c2.39,0.65,5.89,2.52,8.96,7.8c2.66,4.57,1.36,8.77-0.2,11.49c-3.18,5.55-9.8,9.3-13.98,9.31
			c-0.02,0-0.05,0-0.08,0c-5.38,0-8.7-2.1-10.06-3.18c-0.15,1.58-0.9,4.8-4.42,7.3c-6.94,4.91-15.38,0.47-17.74-0.96
			c-0.14,1.54-0.72,2.76-1.74,3.62c-1.89,1.59-4.72,1.49-5.86,1.37c-0.02,3.13-0.17,20.5-1.03,21.36
			C67.7,113.29,61.22,114.43,56.56,114.43z M48.6,96.82l5.15,15.37c0.09,0.74,0.7,1.31,1.44,1.36c4.51,0.28,11.97-1.05,12.62-1.56
			c0.52-1.09,0.77-18.31,0.77-21.24l0-0.5l0.49,0.09c0.04,0.01,3.6,0.61,5.66-1.12c0.98-0.83,1.48-2.08,1.47-3.72l0-0.82l0.67,0.47
			c0.1,0.07,9.78,6.76,17.4,1.37c4.34-3.08,4.1-7.32,4.09-7.5l-0.08-1.18l0.81,0.86c0.03,0.04,3.42,3.54,10.15,3.54
			c0.02,0,0.05,0,0.07,0c3.87-0.01,10.26-3.67,13.25-8.89c1.45-2.52,2.65-6.42,0.2-10.64c-5.55-9.54-12.29-7.62-12.58-7.54
			l-0.75,0.23l0.22-0.75c0.01-0.05,1.41-4.89-0.76-8.84c-1.21-2.19-3.29-3.72-6.2-4.55c-7.38-2.1-9.22,2.14-9.3,2.33l-0.33,0.81
			l-0.43-0.76c-0.06-0.11-6.16-10.76-16.6-8.51c-12.06,2.61-11.34,10.9-11.3,11.26l0.07,0.67l-0.64-0.23
			c-0.37-0.13-8.98-3.18-14.04,4.07c-3.18,4.55-0.01,11.29,0.02,11.36l0.24,0.49l-0.54,0.1c-0.09,0.02-9.04,1.82-8.89,8.88
			c0.14,6.71,4.64,10.05,4.68,10.08l0.85,0.62l-1.05,0.14c-0.16,0.02-3.89,0.58-4.51,5.35c-0.39,3.01,0.31,5.57,1.96,7.22
			c1.38,1.37,3.32,2,5.33,1.74L48.6,96.82z"/>
	</g>
	<g>
		<path class="st4" d="M53.44,64.01c-1.22-0.89-2.62-1.57-4.07-1.97c-4.19-1.16-8.89,0.15-10.89,4.04
			c-2.85,5.54,0.88,16.87,8.31,16.86c3.5,0,5.52-3.03,7.97-5.02C59.58,74.02,58.08,67.38,53.44,64.01z"/>
	</g>
	<g>
		<path class="st4" d="M123.89,77.35c-4.09,4.46-11.73,5.84-17.58,3.42c-7.64-3.16-11.16-14.99-6.19-22
			c8.01-11.33,23.49-4.07,26.27,7.85C127.44,71.14,126.26,74.76,123.89,77.35z"/>
	</g>
	<g>
		<path class="st4" d="M80.64,83.6c-0.03-1.86-0.56-3.64-1.82-4.98c-2.08-2.21-6.27-3.37-9.09-1.96c-2.82,1.42-4.5,5.44-4.37,8.43
			C65.83,96.33,80.8,94.72,80.64,83.6z"/>
	</g>
	<g>
		<path class="st4" d="M90.44,40.72c-0.04-2.03-0.79-3.97-2.56-5.43c-2.92-2.41-8.8-3.68-12.76-2.13c-3.96,1.54-6.32,5.93-6.14,9.2
			C69.65,54.6,90.67,52.85,90.44,40.72z"/>
	</g>
	<g>
		<g>
			<path class="st2" d="M59.05,79.44l-0.84-0.06c0.21-3.14-2.15-6.53-5.49-7.89c-2.95-1.21-5.83-0.5-7.91,1.92l-0.64-0.55
				c2.33-2.72,5.56-3.5,8.87-2.15C56.7,72.2,59.28,75.96,59.05,79.44z"/>
		</g>
		<g>
			<path class="st2" d="M59.5,108.83c-0.01-0.2-1.3-19.83-1.29-29.42c0.01-6.83,5.66-7.54,9.04-7.96c0.55-0.07,1.05-0.13,1.48-0.21
				c3.78-0.71,5.06-4.45,6.41-8.41c1.46-4.29,2.98-8.73,7.82-9.73c7.15-1.47,8.26,1.05,10.28,5.63c0.67,1.52,1.43,3.23,2.55,5.15
				c2.17,3.71,5.31,5.87,8.62,5.92c0.04,0,0.08,0,0.11,0c2.69,0,5.13-1.43,6.7-3.94l0.72,0.45c-1.75,2.8-4.46,4.4-7.54,4.34
				c-3.61-0.05-7.02-2.37-9.34-6.34c-1.15-1.96-1.91-3.7-2.59-5.24c-1.96-4.45-2.86-6.48-9.33-5.15c-4.36,0.9-5.8,5.11-7.19,9.18
				c-1.37,4.02-2.79,8.17-7.05,8.97c-0.44,0.08-0.96,0.15-1.53,0.22c-3.5,0.44-8.3,1.04-8.3,7.12c-0.01,9.56,1.27,29.17,1.29,29.36
				L59.5,108.83z"/>
		</g>
		<g>
			<path class="st2" d="M72.66,60.86c-1.46,0-3.01-0.34-4.14-1.46c-2.69-2.67-3.07-6.9-0.89-9.86l0.68,0.5
				c-1.93,2.62-1.58,6.39,0.81,8.76c2.39,2.37,7.41,0.51,7.46,0.49l0.3,0.79C76.75,60.14,74.8,60.86,72.66,60.86z"/>
		</g>
		<g>
			<path class="st2" d="M83.74,75.96l-0.57-0.63c0.05-0.05,0.12-0.1,0.19-0.15c0.4-0.31,1.16-0.88,0.64-3.91
				c-0.43-2.5-2.15-3.85-5.13-4.03c-2.37-0.15-5.39,1.53-5.42,1.55l-0.41-0.74c0.13-0.07,3.26-1.83,5.89-1.66
				c3.37,0.2,5.42,1.84,5.91,4.73c0.61,3.53-0.41,4.31-0.96,4.72C83.83,75.89,83.78,75.92,83.74,75.96z"/>
		</g>
		<g>
			<path class="st2" d="M63.99,87.25c-0.12,0-0.24,0-0.36-0.01c-3.85-0.24-5.32-2.35-5.42-4.24l0.84-0.04
				c0.04,0.74,0.48,3.19,4.62,3.44c3.5,0.23,5.98-3.17,6.18-5.09l0.84,0.09C70.44,83.8,67.66,87.25,63.99,87.25z"/>
		</g>
		<g>
			<path class="st2" d="M87.34,53.31l-0.73-0.42c0.03-0.05,2.91-5.16,1.52-7.89c-1.65-3.26-5.01-2.98-5.05-2.97L83,41.18
				c0.04,0,3.97-0.33,5.88,3.43C90.47,47.76,87.47,53.09,87.34,53.31z"/>
		</g>
	</g>
</g>
</svg>
