<?xml version="1.0" encoding="utf-8"?>
<!-- Generator: Adobe Illustrator 24.2.1, SVG Export Plug-In . SVG Version: 6.00 Build 0)  -->
<svg version="1.1" id="Layer_1" xmlns="http://www.w3.org/2000/svg" xmlns:xlink="http://www.w3.org/1999/xlink" x="0px" y="0px"
	 viewBox="0 0 175 175" style="enable-background:new 0 0 175 175;" xml:space="preserve">
<style type="text/css">
	.st0{fill:#E4EAEE;}
	.st1{fill:#FFFFFF;}
	.st2{fill:#4D4E4E;}
	.st3{fill:#CE3627;}
	.st4{fill:#F9DC9B;}
	.st5{fill:#EAEEF2;}
	.st6{fill:#FAF8F4;}
	.st7{fill:#E4EAEE;stroke:#E9EFF4;stroke-width:0.7519;stroke-miterlimit:10;}
	.st8{fill:#EDF4FB;}
	.st9{fill:#FAF8F4;stroke:#606262;stroke-miterlimit:10;}
	.st10{fill:#2974B5;stroke:#606262;stroke-miterlimit:10;}
	.st11{fill:#FFFFFF;stroke:#4D4E4E;stroke-miterlimit:10;}
	.st12{fill:#2974B5;}
	.st13{fill:#FFFFFF;stroke:#606262;stroke-miterlimit:10;}
	.st14{fill:#22729F;}
	.st15{fill:#606262;}
	.st16{fill-rule:evenodd;clip-rule:evenodd;fill:#606262;}
	.st17{fill-rule:evenodd;clip-rule:evenodd;fill:#FFFFFF;}
	.st18{fill:#004A85;}
	.st19{fill:#468E8D;}
	.st20{fill:#F8F4EC;}
	.st21{fill:#FBF8F3;}
	.st22{fill:none;stroke:#4D4E4E;stroke-miterlimit:10;}
	.st23{fill:#F8F4EC;stroke:#4D4E4E;stroke-width:1.2;stroke-miterlimit:10;}
	.st24{fill:#FBD892;}
	.st25{fill:#F9DC9B;stroke:#4D4E4E;stroke-miterlimit:10;}
	.st26{fill:#FBF8F3;stroke:#4D4E4E;stroke-width:0.7571;stroke-miterlimit:10;}
	.st27{fill:#FBF8F3;stroke:#4D4E4E;stroke-width:0.8065;stroke-miterlimit:10;}
	.st28{fill:#F8F4EC;stroke:#4D4E4E;stroke-width:0.5787;stroke-miterlimit:10;}
	.st29{fill:#F9DC9B;stroke:#4D4E4E;stroke-width:0.5;stroke-miterlimit:10;}
	.st30{fill:#F8F4EC;stroke:#4D4E4E;stroke-width:1.25;stroke-miterlimit:10;}
	.st31{fill:#FFFFFF;stroke:#4D4E4E;stroke-width:1.25;stroke-miterlimit:10;}
	.st32{fill:#F8F4EC;stroke:#4D4E4E;stroke-width:0.9329;stroke-miterlimit:10;}
	.st33{fill:#F8F4EC;stroke:#4D4E4E;stroke-width:1.1086;stroke-miterlimit:10;}
	.st34{fill:#F8F4EC;stroke:#4D4E4E;stroke-width:1.0355;stroke-miterlimit:10;}
	.st35{fill:#F8F4EC;stroke:#4D4E4E;stroke-width:1.1782;stroke-miterlimit:10;}
	.st36{fill:#FFFFFF;stroke:#4D4E4E;stroke-width:1.0172;stroke-miterlimit:10;}
	.st37{fill:#FFFFFF;stroke:#4D4E4E;stroke-width:1.0011;stroke-miterlimit:10;}
	.st38{fill:#FFFFFF;stroke:#4D4E4E;stroke-width:1.1782;stroke-miterlimit:10;}
	.st39{fill:#5F6161;}
	.st40{fill:#2B5484;}
	.st41{fill:#1E5388;}
	.st42{fill:#F8F4EC;stroke:#4D4E4E;stroke-width:0.7457;stroke-miterlimit:10;}
	.st43{fill:#F8F4EC;stroke:#4D4E4E;stroke-width:1.4177;stroke-miterlimit:10;}
	.st44{fill:#F8F4EC;stroke:#4D4E4E;stroke-width:0.8615;stroke-miterlimit:10;}
	.st45{fill:#F8F4EC;stroke:#4D4E4E;stroke-width:1.0237;stroke-miterlimit:10;}
	.st46{fill:#568C8C;}
	.st47{fill:#F4DBA2;}
	.st48{fill:none;stroke:#4D4E4E;stroke-width:0.9581;stroke-miterlimit:10;}
	.st49{fill:none;stroke:#4D4E4E;stroke-width:1.4652;stroke-miterlimit:10;}
	.st50{fill:none;}
	.st51{fill:#606161;}
</style>
<g>
	<path class="st5" d="M167.13,80.67c0,20.38-6.94,47.76-20.15,61.26c-13.59,13.88-42.46,23.51-63.43,23.51
		c-15.5,0-31.19-8.79-43.53-18.41C19.45,131,12.89,110.27,12.89,84.43s6.3-42.45,22.23-60.44C47.9,9.57,72.25,9.57,87.75,9.57
		C129.09,9.57,167.13,39.32,167.13,80.67z"/>
	<g>
		<path class="st1" d="M137,56.44c-1.09-4.43-3.99-4.22-8.57-4.21c-8.26,0.02-16.54,0.48-24.8,0.54
			c-18.47,0.12-36.94-0.39-55.38-1.49c-7.02-0.42-7.42,1.83-6.94,10.31c-0.32,4.39-0.17,48.38-0.23,51.32
			c-0.13,6.31-0.61,8.91,3.77,10.58c0,0,34.11-0.24,47.63,0.01c8.31,0.16,31.75,0.67,32.43,0.62c2.7,0.29,7.25-0.65,9.29-2.4
			c3.58-2.13,3.67-4.12,3.79-9.15c0.18-7.55-0.18-15.06,0.31-22.62C138.76,82.7,138.03,60.65,137,56.44z"/>
		<g>
			<g>
				<path class="st2" d="M43.74,52.85c23.3,0.47,46.59-0.96,69.89-0.76c6.54,0.06,13.07,0.25,19.6,0.64c1.09,0.07,1.08-1.62,0-1.69
					c-23.29-1.41-46.62-0.18-69.91,0.14c-6.53,0.09-13.05,0.11-19.58-0.02C42.66,51.14,42.66,52.83,43.74,52.85L43.74,52.85z"/>
			</g>
			<g>
				<path class="st2" d="M132.39,51.89c-0.23,10.38-0.03,20.77,0.16,31.15c0.18,9.7,0.44,19.4,0.68,29.1
					c0.05,2.24,0.27,4.56,0.11,6.8c-0.08,1.08,1.61,1.08,1.69,0c0.13-1.82-0.04-3.71-0.08-5.53c-0.1-4.11-0.2-8.22-0.31-12.32
					c-0.27-10.93-0.52-21.86-0.62-32.79c-0.05-5.47-0.07-10.94,0.05-16.41C134.11,50.8,132.42,50.8,132.39,51.89L132.39,51.89z"/>
			</g>
			<g>
				<path class="st2" d="M42.88,52.26c0,4.42-0.25,8.83-0.36,13.24c-0.11,4.33,0.06,8.66,0.12,12.98
					c0.13,8.77,0.13,17.55-0.07,26.33c-0.12,5.15-0.3,10.31-0.56,15.46c-0.05,1.09,1.64,1.08,1.69,0c0.44-9,0.67-18.01,0.71-27.02
					c0.04-8.74-0.37-17.49-0.24-26.23c0.07-4.92,0.39-9.83,0.39-14.75C44.57,51.17,42.88,51.17,42.88,52.26L42.88,52.26z"/>
			</g>
			<g>
				<path class="st2" d="M42.87,121.11c23.56-0.14,47.12-0.42,70.68-0.88c6.7-0.13,13.39-0.28,20.08-0.44
					c1.09-0.03,1.09-1.72,0-1.69c-23.56,0.56-47.12,0.94-70.68,1.17c-6.7,0.06-13.39,0.11-20.09,0.15
					C41.79,119.42,41.78,121.11,42.87,121.11L42.87,121.11z"/>
			</g>
		</g>
		<g>
			<path class="st2" d="M42.87,128.54c23.71-0.33,47.42-0.67,71.13-1c6.73-0.09,13.47-0.19,20.2-0.28c1.09-0.02,1.09-1.71,0-1.69
				c-23.71,0.33-47.42,0.67-71.13,1c-6.73,0.09-13.47,0.19-20.2,0.28C41.79,126.86,41.78,128.55,42.87,128.54L42.87,128.54z"/>
		</g>
		<path class="st4" d="M108.99,71.89c-4.46-8.43-16.03-9.64-24.75-7.84C76,65.74,71.36,73.06,69.7,79.59
			c-2.88,11.34,5.67,28.53,24.55,24.25C108.18,100.69,118.04,89.01,108.99,71.89z"/>
		<g>
			<g>
				<path class="st44" d="M80.3,91.23c1.39-1.6,4.17-11.46-2.07-15.78c-3.46-2.4-7.94-3.61-11.8-1.91c-3.86,1.7-6.54,5.77-6.58,9.99
					c-0.01,1.45,0.26,2.88,0.61,4.29c0.57,2.28,1.43,4.64,3.25,6.12c2.68,2.18,6.58,1.84,9.9,0.93
					C76.1,94.18,78.61,93.17,80.3,91.23z"/>
				<path class="st45" d="M94.25,118.88c0.55,0.06,1.15,0.12,1.61-0.19c0.54-0.36,0.68-1.07,0.77-1.71
					c0.66-4.62-1.2-43.48-0.66-48.25c0.81-8.77-5.15-5.98-6.25-0.39c-0.08,0.39-1.46-0.54-1.74-0.77c-0.26-0.21-0.64-0.03-0.64,0.3
					c-0.02,3.22,0.12,16.5-0.05,17.09c-1.65,5.69-4.83,8.64-9.98,11.55c-5.16,2.91-11.46,3.7-17.17,2.16
					c-5.55,5.24-10.42,14.02-8.68,21.46C53.7,120.35,89.98,118.38,94.25,118.88z"/>
			</g>
		</g>
	</g>
</g>
</svg>
