<?xml version="1.0" encoding="utf-8"?>
<!-- Generator: Adobe Illustrator 24.2.1, SVG Export Plug-In . SVG Version: 6.00 Build 0)  -->
<svg version="1.1" id="Layer_1" xmlns="http://www.w3.org/2000/svg" xmlns:xlink="http://www.w3.org/1999/xlink" x="0px" y="0px"
	 viewBox="0 0 175 175" style="enable-background:new 0 0 175 175;" xml:space="preserve">
<style type="text/css">
	.st0{fill:#E4EAEE;}
	.st1{fill:#FFFFFF;}
	.st2{fill:#4D4E4E;}
	.st3{fill:#CE3627;}
	.st4{fill:#F9DC9B;}
	.st5{fill:#EAEEF2;}
	.st6{fill:#FAF8F4;}
	.st7{fill:#E4EAEE;stroke:#E9EFF4;stroke-width:0.7519;stroke-miterlimit:10;}
	.st8{fill:#EDF4FB;}
	.st9{fill:#FAF8F4;stroke:#606262;stroke-miterlimit:10;}
	.st10{fill:#2974B5;stroke:#606262;stroke-miterlimit:10;}
	.st11{fill:#FFFFFF;stroke:#4D4E4E;stroke-miterlimit:10;}
	.st12{fill:#2974B5;}
	.st13{fill:#FFFFFF;stroke:#606262;stroke-miterlimit:10;}
	.st14{fill:#22729F;}
	.st15{fill:#606262;}
	.st16{fill-rule:evenodd;clip-rule:evenodd;fill:#606262;}
	.st17{fill-rule:evenodd;clip-rule:evenodd;fill:#FFFFFF;}
	.st18{fill:#004A85;}
	.st19{fill:#468E8D;}
	.st20{fill:#F8F4EC;}
	.st21{fill:#FBF8F3;}
	.st22{fill:none;stroke:#4D4E4E;stroke-miterlimit:10;}
	.st23{fill:#F8F4EC;stroke:#4D4E4E;stroke-width:1.2;stroke-miterlimit:10;}
	.st24{fill:#FBD892;}
	.st25{fill:#F9DC9B;stroke:#4D4E4E;stroke-miterlimit:10;}
	.st26{fill:#FBF8F3;stroke:#4D4E4E;stroke-width:0.7571;stroke-miterlimit:10;}
	.st27{fill:#FBF8F3;stroke:#4D4E4E;stroke-width:0.8065;stroke-miterlimit:10;}
	.st28{fill:#F8F4EC;stroke:#4D4E4E;stroke-width:0.5787;stroke-miterlimit:10;}
	.st29{fill:#F9DC9B;stroke:#4D4E4E;stroke-width:0.5;stroke-miterlimit:10;}
	.st30{fill:#F8F4EC;stroke:#4D4E4E;stroke-width:1.25;stroke-miterlimit:10;}
	.st31{fill:#FFFFFF;stroke:#4D4E4E;stroke-width:1.25;stroke-miterlimit:10;}
	.st32{fill:#F8F4EC;stroke:#4D4E4E;stroke-width:0.9329;stroke-miterlimit:10;}
	.st33{fill:#F8F4EC;stroke:#4D4E4E;stroke-width:1.1086;stroke-miterlimit:10;}
	.st34{fill:#F8F4EC;stroke:#4D4E4E;stroke-width:1.0355;stroke-miterlimit:10;}
	.st35{fill:#F8F4EC;stroke:#4D4E4E;stroke-width:1.1782;stroke-miterlimit:10;}
	.st36{fill:#FFFFFF;stroke:#4D4E4E;stroke-width:1.0172;stroke-miterlimit:10;}
	.st37{fill:#FFFFFF;stroke:#4D4E4E;stroke-width:1.0011;stroke-miterlimit:10;}
	.st38{fill:#FFFFFF;stroke:#4D4E4E;stroke-width:1.1782;stroke-miterlimit:10;}
	.st39{fill:#5F6161;}
	.st40{fill:#2B5484;}
	.st41{fill:#1E5388;}
	.st42{fill:#F8F4EC;stroke:#4D4E4E;stroke-width:0.7457;stroke-miterlimit:10;}
	.st43{fill:#F8F4EC;stroke:#4D4E4E;stroke-width:1.4177;stroke-miterlimit:10;}
	.st44{fill:#F8F4EC;stroke:#4D4E4E;stroke-width:0.8615;stroke-miterlimit:10;}
	.st45{fill:#F8F4EC;stroke:#4D4E4E;stroke-width:1.0237;stroke-miterlimit:10;}
	.st46{fill:#568C8C;}
	.st47{fill:#F4DBA2;}
	.st48{fill:none;stroke:#4D4E4E;stroke-width:0.9581;stroke-miterlimit:10;}
	.st49{fill:none;stroke:#4D4E4E;stroke-width:1.4652;stroke-miterlimit:10;}
	.st50{fill:none;}
	.st51{fill:#606161;}
</style>
<g>
	<g>
		<path class="st5" d="M158.57,81.43c0,19.07-0.17,43.16-12.53,55.79c-12.72,12.99-40.02,25.99-59.63,25.99
			c-14.51,0-35.22-10.7-46.77-19.69c-19.25-14.99-25.39-34.39-25.39-58.57s5.89-39.72,20.8-56.55C47.01,14.9,69.79,14.9,84.3,14.9
			C122.98,14.9,158.57,42.74,158.57,81.43z"/>
		<g>
			<path class="st1" d="M139.84,68.68c-1.77,1.55-3.18,3.43-4.39,5.44c-5.55-3.43-11.65-5.85-17.63-8.4
				c-6.48-2.76-12.96-5.52-19.43-8.28c-3.31-1.41-6.63-2.82-9.94-4.24c2.61-3.7,6.21-6.4,10.44-8.04c3.96,1.62,7.9,3.27,11.83,4.93
				c7.96,3.36,15.89,6.78,23.74,10.38c3.41,1.56,6.8,3.16,10.14,4.88C142.93,66.35,141.3,67.4,139.84,68.68z"/>
			<path class="st1" d="M135.87,74.97c-1.77,1.55-3.11,4.67-4.32,6.68c-5.55-3.43-13.36-7.9-19.34-10.45
				c-6.48-2.76-12.96-5.52-19.43-8.28c-3.31-1.41-4.61-5.11-7.92-6.52c2.61-3.7,3-4.86,7.23-6.5c3.96,1.62,9.09,4.01,13.03,5.67
				c7.96,3.36,15.89,6.78,23.74,10.38c3.41,1.56,6.8,3.16,10.14,4.88C137.32,71.84,137.34,73.69,135.87,74.97z"/>
			<g>
				<g>
					<path class="st2" d="M96.15,48.09c4.02,1.64,8.03,3.32,12.04,5.01c7.96,3.36,15.89,6.78,23.74,10.38
						c3.81,1.75,7.6,3.53,11.31,5.49c0-0.44,0-0.87,0-1.31c-2.05,1.22-4.12,2.46-5.93,4.04c-1.89,1.66-3.38,3.69-4.65,5.85
						c-0.49,0.84,0.81,1.6,1.31,0.76c1.21-2.06,2.61-3.97,4.41-5.54c1.71-1.49,3.68-2.65,5.62-3.8c0.47-0.28,0.51-1.04,0-1.31
						c-7.15-3.78-14.6-7.03-22-10.27c-7-3.06-14.04-6.04-21.1-8.97c-1.45-0.6-2.89-1.2-4.34-1.79
						C95.65,46.26,95.26,47.72,96.15,48.09L96.15,48.09z"/>
				</g>
				<g>
					<path class="st2" d="M85.51,56.78c2.67-4.06,6.51-6.98,11.04-8.69c0.9-0.34,0.51-1.8-0.4-1.46c-4.92,1.86-9.04,4.98-11.95,9.39
						C83.66,56.83,84.97,57.59,85.51,56.78L85.51,56.78z"/>
				</g>
			</g>
			<path class="st1" d="M136.08,102.9c-0.37-8.61-0.06-14.27-0.62-22.87c-0.2-3.11-0.82-4.51-3.58-5.66
				c-10.09-4.21-20.17-8.42-30.27-12.62c-3.41-1.42-6.98-2.81-10.73-2.87c-6.25-0.1-10.47,3.67-16.07,5.98
				c-6.51,2.69-17.95,7.78-24.39,10.64c-3.03,1.35,0.1,2.69-0.18,5.54c-1.12,11.2-0.92,22.41-1.31,33.64
				c-0.11,3.27-0.18,6.36,2.11,8.96c2.27,2.57,5.71,3.67,8.72,5.16c6.49,3.23,30.91,19.32,37.41,17.42
				c3.28-0.96,33.81-19.14,37.79-22.57C137.08,121.84,136.5,112.56,136.08,102.9z"/>
			<g>
				<path class="st50" d="M94.2,141.94l-44.43-22.96c-0.23-1.36-0.86-5.53-0.97-10.12c-0.17-7.32-1.87-27.14-2.37-32.88l47.09,19.14
					c-0.67,2.71-0.33,6.04-0.32,8.72c0.04,4.6,0.1,9.21,0.15,13.82c0.06,4.83,0.23,9.66,0.36,14.5c0.06,2.09,0.19,4.17,0.3,6.26
					C94.07,139.57,94.06,140.77,94.2,141.94z"/>
				<path class="st50" d="M132.9,77.87c-0.32,6.35-1.19,24.56-1.19,30.23v12.78l-35.4,20.93c0.1-1.04,0.08-2.11,0.1-3.15
					c0.05-2.18,0.11-4.35,0.08-6.52c-0.05-4.84-0.13-9.67-0.32-14.5c-0.18-4.61-0.36-9.22-0.53-13.82c-0.1-2.71,0.09-6.03-0.63-8.74
					L132.9,77.87z"/>
				<polygon class="st51" points="48.09,74.55 47.59,74.54 47.82,74.44 				"/>
				<path class="st51" d="M133.08,77.79l-0.18,0.08c0-0.15,0.01-0.3,0.02-0.43L133.08,77.79z"/>
				<polygon class="st51" points="132.32,76.13 132.16,76.07 132.27,76.02 				"/>
				<g>
					<path class="st2" d="M84.89,56.32l-0.37-0.14L44.3,73.87l0.06,0.69c0.02,0.26,2.31,25.84,2.5,34.34
						c0.14,5.74,1.04,10.69,1.08,10.9l0.09,0.47l46.79,24.17l0.48,0.25l38.36-22.69V108.1c0-6.82,1.29-32.09,1.3-32.34l0.03-0.71
						L84.89,56.32z M49.77,118.98c-0.23-1.36-0.86-5.53-0.97-10.12c-0.17-7.32-1.87-27.14-2.37-32.88l47.09,19.14
						c-0.67,2.71-0.33,6.04-0.32,8.72c0.04,4.6,0.1,9.21,0.15,13.82c0.06,4.83,0.23,9.66,0.36,14.5c0.06,2.09,0.19,4.17,0.3,6.26
						c0.05,1.16,0.04,2.36,0.18,3.53L49.77,118.98z M94.25,93.31L48.09,74.55l-0.5-0.01l0.22-0.1l36.76-16.16l47.59,17.79l0.11-0.05
						l0.05,0.11l-0.16-0.06l-1.7,0.77L94.25,93.31z M132.9,77.87c-0.32,6.35-1.19,24.56-1.19,30.23v12.78l-35.4,20.93
						c0.1-1.04,0.08-2.11,0.1-3.15c0.05-2.18,0.11-4.35,0.08-6.53c-0.05-4.84-0.13-9.67-0.32-14.5c-0.18-4.61-0.36-9.22-0.53-13.82
						c-0.1-2.71,0.09-6.03-0.63-8.74L132.9,77.87c0-0.15,0.01-0.3,0.02-0.43l0.16,0.35L132.9,77.87z"/>
				</g>
			</g>
			<g>
				<path class="st1" d="M53.58,78.88c-1.98-0.85-7.47-3.02-8.08-3.38c-3.27,1.23-5.44,5.18-7.65,7.97
					c-0.02,0.03-0.05,0.06-0.07,0.09c0,0,0,0,0,0c-0.28,0.35-0.55,0.7-0.81,1.04c-3.52,4.58,4.44,10.79,8.07,6.23
					c0.14-0.18,0.29-0.34,0.43-0.52c0.24-0.13,0.47-0.28,0.69-0.44c0.18,0.03,0.36,0.07,0.54,0.08l0.24,0.02
					c0.98,0.26,2.2,0.26,3.15,0.26c1.8,0,3.1-0.72,3.92-1.76c1.24-0.1,2.45-0.6,3.32-1.46c1.52-1.52,1.8-3.6,1.11-5.43
					C56.58,80.88,55.42,79.67,53.58,78.88z"/>
			</g>
			<path class="st1" d="M81.14,106.02c-7.47-4.99-15.42-9.33-23.46-13.33c-5.32-2.65-10.84-9.61-13.38-14.4
				c-1.1-2.08,2.39-1.31-0.04-2.16c-7.66,2.11-14.36,12.43-16.02,15.66c4.03,1.41,8.03,2.9,11.99,4.48
				c14.77,5.91,29.09,13.02,42.81,21.23c0.79-2.76,1.73-5.47,2.81-8.11C84.33,108.21,82.75,107.09,81.14,106.02z"/>
			<g>
				<g>
					<path class="st2" d="M46.2,73.49c-3.52,1.31-6.36,4.33-8.74,7.13c-2.62,3.09-5.02,6.46-6.85,10.08
						c-0.44,0.87,0.87,1.63,1.31,0.76c1.74-3.43,3.98-6.65,6.45-9.59c2.22-2.63,4.91-5.69,8.23-6.93
						C47.51,74.61,47.12,73.15,46.2,73.49L46.2,73.49z"/>
				</g>
				<g>
					<path class="st2" d="M31.07,91.81c14.24,4.75,28.1,10.61,41.41,17.55c3.8,1.98,7.56,4.05,11.27,6.21
						c0.42,0.25,0.98,0.02,1.11-0.45c2.01-7.11,5.46-13.98,9.43-20.19c0.53-0.82-0.78-1.58-1.31-0.76
						c-4.04,6.32-7.53,13.32-9.58,20.55c0.37-0.15,0.74-0.3,1.11-0.45c-13.1-7.59-26.79-14.15-40.93-19.57
						c-4-1.54-8.04-2.98-12.11-4.34C30.54,90.04,30.14,91.5,31.07,91.81L31.07,91.81z"/>
				</g>
			</g>
		</g>
	</g>
	<g>
		<g>
			<path class="st20" d="M112.95,84.35c-0.34-1-7.39-3.89-8.2-4.89c-0.61-0.76-18.17-47.02-18.36-47.6
				c-0.1-0.31-0.15-0.51-0.18-0.61c0.3-2.55-2.12-5.18-5.01-3.68c-1.48,0.77-2.86,1.21-4.51,1.45c-1.1,0.16-2,0.38-3.85,1.24
				c-1.25,0.39-2.39,2.48-1.99,4.92c0.25,1.49,0.8,13.9,0.84,14.63c0.12,2.22,2.34,33,3.03,35.28c-0.05,0.25-0.13,0.48-0.21,0.7
				c0.68,0.34,1.35,0.69,2.02,1.04c0.44,0.15,0.88,0.3,1.32,0.45c0.73,0.13,1.44,0.33,2.11,0.64c2.43,0.67,11.48,3.86,14.45,4.49
				c3.21-1.49,8.39-3.39,11.69-4.66c2.42-0.93,4.75-2.06,7.1-3.17C113.04,84.44,112.95,84.35,112.95,84.35z"/>
		</g>
		<path class="st2" d="M115.41,81.8c-1.1-0.71-2.3-1.11-3.48-1.45c-2.39-0.62-4.81-0.87-7.21-1c-1.03-0.04-1.93-0.03-2.49,0.04
			c0.02-0.63,0.01-1.5,0.07-1.84c0.32-1.63,0.3-1.15-0.84-4.02c-2.42-6.08-4.84-12.15-7.26-18.23c-1.55-4.44-3.17-8.85-4.81-13.25
			l-2.45-6.6l-0.59-1.64c-0.08-0.26-0.18-0.5-0.24-0.78c-0.06-0.27-0.11-0.56-0.16-0.84l-0.58-3.48c-0.09-0.54-0.22-1.23-0.39-1.57
			c-0.03-0.07-0.06-0.14-0.1-0.18c-0.06-0.15-0.71-0.49-0.87-0.59c-1-0.56-2.21-0.8-3.63-0.57c-2.04,0.35-4.03,0.83-6.01,1.4
			c-0.99,0.29-1.97,0.6-2.94,0.98c-0.49,0.2-0.97,0.39-1.5,0.7c-0.14,0.09-0.27,0.16-0.45,0.34c-0.06,0.06-0.09,0.09-0.16,0.19
			c-0.03,0.05-0.05,0.08-0.09,0.15c-0.03,0.07-0.06,0.15-0.08,0.23c-0.02,0.1-0.02,0.23,0,0.33c0.01,0.07,0.03,0.09,0.04,0.14
			c0.03,0.07,0.07,0.17,0.09,0.22c0.14,0.24,0.29,0.4,0.43,0.54c0,0.02,0,0.03,0,0.05c-0.06,0.86,0.51,2.71,0.61,3.7
			c0.05,0.49,0.91,16.16,1.43,23.16l1.43,18.61c0.16,2.82-0.09,5.7,0.11,8.53c0,0.05,0.01,0.09,0.01,0.13
			c0.3,0.15,0.6,0.3,0.91,0.45c0.64-1.47,0.76-3.84,0.54-6.68c-0.5-6.48-0.99-12.95-1.49-19.42c-0.16-4.66-0.41-9.32-0.71-13.97
			c-0.15-2.33-0.31-4.65-0.49-6.98c-0.11-1.17-0.16-2.31-0.36-3.56c-0.26-1.1-0.57-2.14-0.83-3.18c1.46,0.82,3.14,0.99,4.68,0.87
			c0.96-0.06,1.87-0.3,2.75-0.51c0.89-0.24,1.78-0.51,2.63-0.89c0.78-0.33,1.55-0.74,2.25-1.28c0.36-0.28,0.71-0.59,1.02-0.96
			c-0.04,0.55-0.07,1.13-0.06,1.74c0,0.5,0.02,1.03,0.08,1.59c0.05,0.56,0.13,1.17,0.38,1.86c0.62,1.75,1.24,3.36,1.88,5.03
			l1.92,4.96l3.87,9.9l6.6,17.65c0.96,2.55,1.91,5.11,2.9,7.65c-0.24,0.08-0.24,0.19,0.13,0.35c0.16,0.4,0.24,0.36,0.28,0.11
			c1.29,0.45,3.8,0.93,5.57,1.32c0.48,0.1,0.98,0.19,1.48,0.32c0.51,0.12,1.04,0.22,1.56,0.38c1.07,0.26,2.16,0.64,3.16,1.14
			c0.39,0.19,0.72,0.43,1.01,0.68c0.59-0.27,1.18-0.54,1.78-0.8C116.36,82.49,115.89,82.13,115.41,81.8z M83.01,27.98
			c-0.47,0.3-1,0.67-1.65,1.09c-1.39,0.88-3.12,1.47-4.84,1.88c-1.67,0.4-3.46,0.41-4.94-0.3c-0.24-0.16-0.48-0.32-0.67-0.51
			c-0.01-0.01-0.01-0.01-0.02-0.02c0.07-0.03,0.13-0.06,0.2-0.09c0.28-0.12,0.58-0.23,0.88-0.34c1.22-0.42,2.5-0.76,3.78-1.08
			c1.28-0.32,2.57-0.6,3.87-0.84c1.29-0.23,2.62-0.45,3.87-0.47c0.11,0,0.33,0.04,0.54,0.07C83.68,27.58,83.35,27.75,83.01,27.98z"
			/>
		<path class="st41" d="M71.06,47.26c-2.04,0.78-3.94,1.49-4.86,4.05c-0.16,0.45,0.09,2.8,0.18,3.27c0.29,1.51,4.15,2.68,5.49,2.81
			c4.01,0.41,7.69-0.62,11.06-1.25c3.37-0.63,6.43-0.87,10.02-2.7c1.66-0.85,3.47-1.83,4.37-3.46c0,0-0.24-4.63-1-5.05
			c-2.17-1.18-4.71-1.67-6.36-1.35c0.23,0.61,0.53,1.5,0.83,2.25c0.08,0.19-1.06,1.37-1.98,1.69c-5.73,1.97-14.1,2.88-17.53,2.25"/>
		<path class="st41" d="M72.02,61.42c-1.97,0.81-4.48,1.9-4.53,2.38c-0.16,1.66-0.35,3.12,0.09,4.72c0.08,0.31,3.59,2.98,6.34,3.08
			c3.51,0.12,6.99-0.57,10.4-1.43c5.84-1.47,11.79-2.35,16.24-6.42c0.24-0.22,0.77-2.24,0.71-2.58c-0.16-0.83-0.06-0.65-0.3-1.46
			c-0.27-0.88-1.01-2.82-1.85-2.97c-0.44-0.08-2.87-0.91-4.56-0.57c0.22,0.69,0.53,1.36,0.78,2.04c-7.36,3.28-15.11,6.91-23.07,5.65
			C72.19,62.82,72.02,61.42,72.02,61.42z"/>
		<path class="st41" d="M106.33,71.98c-0.31-0.59-1.3-1.74-2.06-2.25c-0.51-0.34-4.64-0.8-4.64-0.8l1.12,2.82
			c0,0-4.19,3.1-7.21,4.06c-1.79,0.57-13.77,2.89-16.19,2.94c-0.81,0.02-3.39,0.51-3.96-0.09l-0.4-4.44l-4.75,2.41
			c-0.77,0.39-1.29,1.16-1.37,2.02l-0.15,1.64c-0.02,0.21-0.02,0.42-0.02,0.63c0.08,0.15,0.16,0.3,0.22,0.47
			c0.01,0.04,0.02,0.06,0.03,0.09c0.01,0.01,0.02,0.03,0.05,0.08c0.04,0.07,0.14,0.22,0.16,0.26c0.19,0.22,0.41,0.43,0.63,0.62
			c0.11,0.09,0.19,0.15,0.31,0.23c0.34,0.03,0.67,0.12,0.96,0.33c0.33,0.23,0.66,0.44,0.99,0.66c1.99,0.9,3.95,1.89,5.9,2.9
			c3.17-0.13,9.51-0.97,13.01-1.77c4.07-0.94,8.94-1.97,11.89-3.66c2.95-1.69,5-4.94,5.38-5.4
			C106.62,75.26,106.64,72.58,106.33,71.98z"/>
	</g>
</g>
</svg>
