<?xml version="1.0" encoding="utf-8"?>
<!-- Generator: Adobe Illustrator 24.2.1, SVG Export Plug-In . SVG Version: 6.00 Build 0)  -->
<svg version="1.1" id="Layer_1" xmlns="http://www.w3.org/2000/svg" xmlns:xlink="http://www.w3.org/1999/xlink" x="0px" y="0px"
	 viewBox="0 0 175 175" style="enable-background:new 0 0 175 175;" xml:space="preserve">
<style type="text/css">
	.st0{fill:#E4EAEE;}
	.st1{fill:#FFFFFF;}
	.st2{fill:#4D4E4E;}
	.st3{fill:#CE3627;}
	.st4{fill:#F9DC9B;}
	.st5{fill:#EAEEF2;}
	.st6{fill:#FAF8F4;}
	.st7{fill:#E4EAEE;stroke:#E9EFF4;stroke-width:0.7519;stroke-miterlimit:10;}
	.st8{fill:#EDF4FB;}
	.st9{fill:#FAF8F4;stroke:#606262;stroke-miterlimit:10;}
	.st10{fill:#2974B5;stroke:#606262;stroke-miterlimit:10;}
	.st11{fill:#FFFFFF;stroke:#4D4E4E;stroke-miterlimit:10;}
	.st12{fill:#2974B5;}
	.st13{fill:#FFFFFF;stroke:#606262;stroke-miterlimit:10;}
	.st14{fill:#22729F;}
	.st15{fill:#606262;}
	.st16{fill-rule:evenodd;clip-rule:evenodd;fill:#606262;}
	.st17{fill-rule:evenodd;clip-rule:evenodd;fill:#FFFFFF;}
	.st18{fill:#004A85;}
	.st19{fill:#468E8D;}
	.st20{fill:#F8F4EC;}
	.st21{fill:#FBF8F3;}
	.st22{fill:none;stroke:#4D4E4E;stroke-miterlimit:10;}
	.st23{fill:#F8F4EC;stroke:#4D4E4E;stroke-width:1.2;stroke-miterlimit:10;}
	.st24{fill:#FBD892;}
	.st25{fill:#F9DC9B;stroke:#4D4E4E;stroke-miterlimit:10;}
	.st26{fill:#FBF8F3;stroke:#4D4E4E;stroke-width:0.7571;stroke-miterlimit:10;}
	.st27{fill:#FBF8F3;stroke:#4D4E4E;stroke-width:0.8065;stroke-miterlimit:10;}
	.st28{fill:#F8F4EC;stroke:#4D4E4E;stroke-width:0.5787;stroke-miterlimit:10;}
	.st29{fill:#F9DC9B;stroke:#4D4E4E;stroke-width:0.5;stroke-miterlimit:10;}
	.st30{fill:#F8F4EC;stroke:#4D4E4E;stroke-width:1.25;stroke-miterlimit:10;}
	.st31{fill:#FFFFFF;stroke:#4D4E4E;stroke-width:1.25;stroke-miterlimit:10;}
	.st32{fill:#F8F4EC;stroke:#4D4E4E;stroke-width:0.9329;stroke-miterlimit:10;}
	.st33{fill:#F8F4EC;stroke:#4D4E4E;stroke-width:1.1086;stroke-miterlimit:10;}
	.st34{fill:#F8F4EC;stroke:#4D4E4E;stroke-width:1.0355;stroke-miterlimit:10;}
	.st35{fill:#F8F4EC;stroke:#4D4E4E;stroke-width:1.1782;stroke-miterlimit:10;}
	.st36{fill:#FFFFFF;stroke:#4D4E4E;stroke-width:1.0172;stroke-miterlimit:10;}
	.st37{fill:#FFFFFF;stroke:#4D4E4E;stroke-width:1.0011;stroke-miterlimit:10;}
	.st38{fill:#FFFFFF;stroke:#4D4E4E;stroke-width:1.1782;stroke-miterlimit:10;}
	.st39{fill:#5F6161;}
	.st40{fill:#2B5484;}
	.st41{fill:#1E5388;}
	.st42{fill:#F8F4EC;stroke:#4D4E4E;stroke-width:0.7457;stroke-miterlimit:10;}
	.st43{fill:#F8F4EC;stroke:#4D4E4E;stroke-width:1.4177;stroke-miterlimit:10;}
	.st44{fill:#F8F4EC;stroke:#4D4E4E;stroke-width:0.8615;stroke-miterlimit:10;}
	.st45{fill:#F8F4EC;stroke:#4D4E4E;stroke-width:1.0237;stroke-miterlimit:10;}
	.st46{fill:#568C8C;}
	.st47{fill:#F4DBA2;}
	.st48{fill:none;stroke:#4D4E4E;stroke-width:0.9581;stroke-miterlimit:10;}
	.st49{fill:none;stroke:#4D4E4E;stroke-width:1.4652;stroke-miterlimit:10;}
	.st50{fill:none;}
	.st51{fill:#606161;}
</style>
<g>
	<path class="st5" d="M160.73,80.15c0,19.54-10.03,42.42-22.7,55.36c-13.03,13.31-31.14,28.43-51.24,28.43
		c-39.64,0-73.94-40.55-73.94-80.18c0-24.77,9.33-50.87,28.42-63.76c11.45-7.74,28.49-8,43.35-8
		C124.27,11.99,160.73,40.51,160.73,80.15z"/>
	<path class="st1" d="M129.09,63.53c-3.96,0.31-7.01,2-9.53,4.48c1.67-5.4,3.32-10.81,4.99-16.21c0.57-1.86-0.37-4.13-2.06-5.07
		c-3.11-1.73-5.99-0.92-8.3,1.05c0.22-1.28,0.45-2.55,0.67-3.83c0.65-3.7-4.25-7.96-7.2-4.19c-2.06,2.63-4.12,5.27-6.18,7.9
		c0.12-0.81,0.23-1.62,0.33-2.44c0.37-3.13-4.07-5.71-6.59-3.78c-9.42,7.19-14.45,17.34-20.58,27.17
		c-2.75,4.41-5.85,8.83-10.15,11.88c-0.01,0.01-0.04,0.03-0.06,0.04c-0.18-0.88-0.46-1.78-0.55-2.59c-0.26-2.31-0.59-5.54,0.48-7.85
		c0.42-0.64,0.85-1.26,1.28-1.87c2.84-4.05-3.7-9.17-6.9-5.32c-0.24,0.29-0.46,0.59-0.68,0.9c0,0-0.01,0-0.01-0.01
		c-0.03,0.04-0.05,0.08-0.08,0.12c-0.24,0.34-0.46,0.68-0.67,1.03c-1.7,2.65-3.4,5.47-4.35,8.45c-1.93,6.08,5.15,34.16,4.26,39.75
		c-0.21,3.08-0.81,6.98,0.12,7.57c0.16,1.07,1.82,7.68,2.17,9.96c0.9,5.77,14.48,14.86,17.05,11.2
		c17.78-25.26,45.72-42.59,55.37-73.38C132.81,65.69,132.14,63.29,129.09,63.53z"/>
	<g>
		<path class="st2" d="M56.95,126.12c4.04-5.7,3.85-13.3,2.07-19.81c-0.85-3.13-2.14-6.03-3.53-8.95c-1.39-2.92-2.17-5.85-2.43-9.08
			c-0.55-6.74-0.81-14.46,3.87-19.93c1.43-1.68,2.59-3.39,3.83-5.23c0.59-0.88,1.2-1.73,1.9-2.52c0.08-0.09,0.18-0.17,0.28-0.24
			c0.16-0.11-0.15,0.02-0.18,0.02c0.21-0.01,0.43,0.08,0.61,0.16c0.95,0.42,1.41,1.49,1.51,2.47c0.17,1.76-0.6,3.51-1.05,5.18
			c-0.36,1.34-0.67,2.68-0.94,4.04c-0.52,2.58-1.05,5.28-0.83,7.92c0.12,1.44,0.49,3.66,2.34,3.72c2.56,0.09,5.22-2.43,6.64-4.3
			c1.04-1.37,1.87-2.95,2.8-4.41c0.85-1.33,1.69-2.66,2.52-4.01c1.14-1.87,2.22-3.78,3.3-5.68c2.83-4.96,5.97-9.75,9.05-14.56
			c2.04-3.19,4.17-6.33,6.69-9.16c0.59-0.67,1.2-1.32,1.84-1.95c0.68-0.68,1.47-1.67,2.49-1.81c1.93-0.27,2.09,1.62,1.78,3.01
			c-0.39,1.72-1.23,3.37-1.89,5c-0.83,2.05-1.67,4.1-2.5,6.15c-1.63,4.02-3.24,8.05-4.86,12.07c-0.79,1.97-1.59,3.95-2.38,5.92
			c-0.44,1.09,1.36,1.84,1.9,0.8c5-9.57,10.84-18.74,17.25-27.42c0.81-1.09,1.62-2.18,2.46-3.25c0.55-0.71,1.2-1.99,2.25-1.94
			c2.57,0.13,0.68,3.95,0.25,5.15c-1.85,5.1-3.94,10.14-5.99,15.17c-2.32,5.68-4.7,11.34-7.05,17.01c0.7,0.19,1.41,0.39,2.11,0.58
			c3.51-9.13,8.37-17.52,14.47-25.17c0.7-0.88,1.41-1.76,2.16-2.6c0.78-0.87,2.7-1.34,2.82,0.35c0.06,0.92-0.79,2.11-1.18,2.91
			c-0.54,1.12-1.07,2.25-1.61,3.38c-1.98,4.2-3.89,8.42-5.8,12.65c-2.34,5.18-4.7,10.35-7.14,15.49c-0.6,1.27,1.2,2.37,1.91,1.12
			c2.23-3.97,5.05-7.55,7.89-11.09c1.33-1.66,2.67-3.31,3.95-5c1.33-1.75,2.43-3.72,3.82-5.41c0.58-0.71,2.84-2.47,3.21-0.69
			c0.33,1.56-0.57,3.68-1.04,5.14c-1.24,3.8-3,7.47-4.76,11.05c-7.53,15.26-17.48,29.14-27.54,42.76
			c-5.71,7.74-10.91,15.28-15.71,23.63c-1,1.74,0.61,3.1,1.61,1.37c9.17-15.96,20.88-30.23,31.11-45.49
			c5.07-7.56,9.81-15.39,13.55-23.7c1.67-3.72,3.29-7.61,4.15-11.61c0.29-1.38,0.73-3.22-0.06-4.51c-0.68-1.13-2.06-1.35-3.25-0.99
			c-2.04,0.61-3.08,2.42-4.22,4.06c-1.59,2.27-3.34,4.42-5.11,6.56c-3.39,4.1-6.88,8.17-9.5,12.82c0.64,0.37,1.27,0.74,1.91,1.12
			c4.81-10.13,9.3-20.39,13.91-30.61c0.81-1.8,2.52-4.36,1.43-6.37c-0.94-1.74-3.27-2.06-4.86-1.06c-0.99,0.62-1.74,1.75-2.49,2.63
			c-0.88,1.04-1.73,2.1-2.56,3.18c-1.68,2.21-3.27,4.49-4.74,6.83c-3.33,5.28-6.18,10.86-8.43,16.68c-0.51,1.33,1.58,1.86,2.11,0.58
			c4.65-11.21,9.34-22.38,13.29-33.86c0.64-1.87,1.15-3.98-0.73-5.32c-1.64-1.17-3.53-0.62-4.73,0.85
			c-3.71,4.56-7.11,9.4-10.36,14.29c-3.8,5.72-7.37,11.6-10.56,17.68c0.63,0.27,1.27,0.53,1.9,0.8c3.38-8.36,6.76-16.72,10.12-25.09
			c0.96-2.39,2.92-6.14,0.78-8.49c-0.98-1.08-2.57-1.38-3.94-0.97c-1.62,0.49-2.84,2.04-3.94,3.23
			c-5.24,5.65-8.81,12.56-12.93,19.01c-2.46,3.85-4.63,7.87-6.92,11.82c-0.78,1.35-1.58,2.69-2.4,4.02c-1,1.64-1.93,3.35-3.36,4.65
			c-1.13,1.02-2.52,2.09-3.97,2.63c-0.21,0.08-0.64,0.29-0.86,0.22c0.05,0.02,0.14,0.02,0.17,0.06c-0.02-0.03-0.11-0.56-0.13-0.73
			c-0.14-1.12,0.05-2.27,0.13-3.39c0.11-1.49,0.28-2.97,0.52-4.45c0.23-1.43,0.51-2.85,0.84-4.26c0.39-1.7,0.96-3.39,1.03-5.14
			c0.06-1.62-0.4-3.25-1.59-4.41c-0.84-0.82-2.31-1.52-3.46-0.95c-0.79,0.39-1.36,1.2-1.88,1.88c-0.77,1.01-1.45,2.09-2.13,3.16
			c-1.38,2.17-3.24,3.96-4.49,6.21c-1.65,2.97-2.39,6.34-2.65,9.7c-0.28,3.65-0.09,7.41,0.38,11.04c0.4,3.07,1.48,5.78,2.75,8.57
			c2.92,6.41,5.25,14.23,3.63,21.3c-0.41,1.78-1.02,3.47-1.95,5.05C55.14,126.21,56.4,126.9,56.95,126.12L56.95,126.12z"/>
	</g>
	<g>
		<path class="st3" d="M99.31,87.89c0,4.35-1.94,8.72-3.67,12.3c-1.81,3.76-4.38,7.01-6.85,10.04c-0.58,0.71-1.57,0.82-2.13,0
			c-2.47-3.61-4.91-7.27-7.13-11.18c-2-3.51-3.22-7.69-2.61-12.18c0.55-4,2.73-6.58,5.92-5.78c2.49,0.62,3.92,3.16,4.87,6
			c1.38-3.19,2.49-4.63,5.12-5.66C95.81,80.26,99.31,83.25,99.31,87.89z"/>
	</g>
</g>
</svg>
